<svg width="69" height="78" viewBox="0 0 69 78" xmlns="http://www.w3.org/2000/svg">
<path fill-rule="evenodd" clip-rule="evenodd" d="M52.67 8.41596H52.4835V4.54831C52.4835 3.51628 51.6429 2.6796 50.6071 2.6796C49.5712 2.6796 48.7307 3.51628 48.7307 4.54831V1.86849C48.7307 0.836466 47.8901 0 46.8543 0C45.8162 0 44.9757 0.836466 44.9757 1.86849C44.9757 0.836466 44.1373 0 43.0993 0C42.0634 0 41.2229 0.836466 41.2229 1.86849V8.82458H40.435C40.5316 8.92575 40.6259 9.02845 40.7137 9.13552C40.8498 9.29875 40.9793 9.46766 41.0912 9.65536C40.9025 9.54479 40.7313 9.41566 40.5689 9.28105C40.4043 9.14558 40.2485 9.00289 40.0992 8.85364L40.0942 8.84823C40.087 8.84045 40.0796 8.83237 40.0707 8.82458H39.7503C39.7415 8.83419 39.7327 8.84425 39.7217 8.85364C39.5791 8.99699 39.4299 9.13377 39.2719 9.26444C39.3706 9.38812 39.4628 9.5166 39.544 9.65536C39.3991 9.57058 39.2653 9.47465 39.138 9.37392C39.0085 9.47465 38.8768 9.57058 38.732 9.65536C38.8132 9.5166 38.9054 9.38812 39.0041 9.26444C38.8461 9.13377 38.6969 8.99699 38.5542 8.85364C38.5433 8.84425 38.5345 8.83419 38.5257 8.82458H38.2053C38.1964 8.83237 38.1889 8.84045 38.1818 8.84824L38.1767 8.85364C38.0341 8.99699 37.8827 9.13377 37.7268 9.26444C37.8234 9.38812 37.9156 9.5166 37.999 9.65536C37.8541 9.57058 37.7203 9.47465 37.5908 9.37392C37.4635 9.47465 37.3296 9.57058 37.1848 9.65536C37.2682 9.5166 37.3604 9.38812 37.4569 9.26444C37.3011 9.13377 37.1519 8.99699 37.007 8.85364C37.0017 8.848 36.9965 8.84212 36.9912 8.83624L36.9807 8.82458H36.6581L36.6547 8.82824C36.647 8.83671 36.6391 8.84544 36.6295 8.85364C36.4869 8.99699 36.3377 9.13377 36.1796 9.26444C36.2784 9.38812 36.3706 9.5166 36.4518 9.65536C36.3069 9.57058 36.1752 9.47465 36.0458 9.37392C35.9163 9.47465 35.7846 9.57058 35.6398 9.65536C35.721 9.5166 35.8153 9.38812 35.9119 9.26444C35.7539 9.13377 35.6046 8.99699 35.462 8.85364C35.4524 8.84543 35.4445 8.83671 35.4368 8.82822L35.4335 8.82458H35.113C35.1041 8.83237 35.0967 8.84045 35.0895 8.84824L35.0845 8.85364C34.9419 8.99699 34.7904 9.13377 34.6346 9.26444C34.7312 9.38812 34.8234 9.5166 34.9068 9.65536C34.7619 9.57058 34.628 9.47465 34.5008 9.37392C34.3713 9.47465 34.2374 9.57058 34.0925 9.65536C34.1759 9.5166 34.2681 9.38812 34.3647 9.26444C34.2089 9.13377 34.0596 8.99699 33.9148 8.85364L33.9059 8.84397L33.899 8.83626L33.8885 8.82458H33.5658C33.5571 8.83419 33.5483 8.84425 33.5395 8.85364C33.3947 8.99699 33.2454 9.13377 33.0874 9.26444C33.1862 9.38812 33.2784 9.5166 33.3596 9.65536C33.2169 9.57058 33.083 9.47465 32.9535 9.37392C32.8263 9.47465 32.6924 9.57058 32.5475 9.65536C32.6287 9.5166 32.7231 9.38812 32.8197 9.26444C32.6638 9.13377 32.5124 8.99699 32.3698 8.85364C32.361 8.84425 32.35 8.83419 32.3412 8.82458H32.0208C32.0155 8.82928 32.0112 8.83408 32.0069 8.83887C32.0024 8.84386 31.9979 8.84885 31.9923 8.85364C31.8497 8.99699 31.6982 9.13377 31.5424 9.26444C31.639 9.38812 31.7311 9.5166 31.8145 9.65536C31.6697 9.57058 31.5358 9.47465 31.4085 9.37392C31.279 9.47465 31.1452 9.57058 31.0025 9.65536C31.0837 9.5166 31.1759 9.38812 31.2725 9.26444C31.1166 9.13377 30.9674 8.99699 30.8226 8.85364C30.8173 8.84804 30.8121 8.8422 30.8069 8.83636L30.7962 8.82458H30.4736L30.4631 8.83624L30.4572 8.84277L30.4473 8.85364C30.3024 8.99699 30.1532 9.13377 29.9974 9.26444C30.094 9.38812 30.1861 9.5166 30.2673 9.65536C30.1247 9.57058 29.9908 9.47465 29.8613 9.37392C29.734 9.47465 29.6002 9.57058 29.4553 9.65536C29.5387 9.5166 29.6309 9.38812 29.7275 9.26444C29.5716 9.13377 29.4224 8.99699 29.2776 8.85364L29.2725 8.84823C29.2654 8.84045 29.2579 8.83237 29.249 8.82458H28.9286L28.9253 8.82824C28.9176 8.83672 28.9097 8.84543 28.9001 8.85364C28.7508 9.00289 28.595 9.14558 28.4304 9.28105C28.268 9.41566 28.0991 9.54479 27.9103 9.65536C28.02 9.46766 28.1495 9.29875 28.2856 9.13552C28.3756 9.02845 28.4699 8.92575 28.5643 8.82458H27.7764V1.86849C27.7764 0.836466 26.9359 0 25.9 0C24.8642 0 24.0236 0.836466 24.0236 1.86849C24.0236 0.836466 23.1831 0 22.1472 0C21.1092 0 20.2686 0.836466 20.2686 1.86849V4.54831C20.2686 3.51628 19.4303 2.6796 18.3944 2.6796H18.3922C17.3564 2.6796 16.5158 3.51628 16.5158 4.54831V8.41596H16.3293C15.8223 8.41596 15.4097 8.82545 15.4097 9.33043V11.7022C15.4097 12.2071 15.8223 12.6166 16.3293 12.6166H16.5158V16.4843C16.5158 17.5163 17.3564 18.353 18.3922 18.353H18.3944C19.4303 18.353 20.2686 17.5163 20.2686 16.4843V19.1641C20.2686 20.1961 21.1092 21.0328 22.1472 21.0328C23.1831 21.0328 24.0236 20.1961 24.0236 19.1641C24.0236 20.1961 24.8642 21.0328 25.9 21.0328C26.9359 21.0328 27.7764 20.1961 27.7764 19.1641V12.208H41.2229V19.1641C41.2229 20.1961 42.0634 21.0328 43.0993 21.0328C44.1373 21.0328 44.9757 20.1961 44.9757 19.1641C44.9757 20.1961 45.8162 21.0328 46.8543 21.0328C47.8901 21.0328 48.7307 20.1961 48.7307 19.1641V16.4843C48.7307 17.5163 49.5712 18.353 50.6071 18.353C51.6429 18.353 52.4835 17.5163 52.4835 16.4843V12.6166H52.67C53.1792 12.6166 53.5896 12.2071 53.5896 11.7022V9.33043C53.5896 8.82545 53.1792 8.41596 52.67 8.41596ZM50.8924 8.01084C50.8353 8.43978 50.7585 8.8685 50.6071 9.29744C50.4556 8.8685 50.3788 8.43978 50.3218 8.01084C50.2691 7.58212 50.245 7.15318 50.245 6.72425C50.2472 6.29553 50.2713 5.86659 50.324 5.43787C50.381 5.00893 50.4556 4.58 50.6071 4.15128C50.7585 4.58 50.8331 5.00893 50.8902 5.43787C50.9429 5.86659 50.967 6.29553 50.9692 6.72425C50.9692 7.15318 50.9428 7.58212 50.8924 8.01084ZM47.1374 5.43787C47.0803 5.86659 47.0057 6.29553 46.8543 6.72425C46.7006 6.29553 46.626 5.86659 46.569 5.43787C46.5163 5.00893 46.4922 4.58 46.4922 4.15128C46.4922 3.72234 46.5163 3.29362 46.5712 2.86468C46.626 2.43596 46.7028 2.00703 46.8543 1.57809C47.0035 2.00703 47.0803 2.43596 47.1374 2.86468C47.1901 3.29362 47.2142 3.72234 47.2142 4.15128C47.2164 4.58 47.1901 5.00893 47.1374 5.43787ZM43.3846 5.43787C43.3275 5.86659 43.2507 6.29553 43.0993 6.72425C42.9478 6.29553 42.871 5.86659 42.8162 5.43787C42.7635 5.00893 42.7394 4.58 42.7394 4.15128C42.7394 3.72234 42.7635 3.29362 42.8162 2.86468C42.8732 2.43596 42.95 2.00703 43.0993 1.57809C43.2507 2.00703 43.3275 2.43596 43.3824 2.86468C43.4351 3.29362 43.4614 3.72234 43.4614 4.15128C43.4614 4.58 43.4373 5.00893 43.3846 5.43787ZM26.1853 5.43787C26.1283 5.86659 26.0515 6.29553 25.9 6.72425C25.7486 6.29553 25.6718 5.86659 25.6147 5.43787C25.5621 5.00893 25.5379 4.58 25.5379 4.15128C25.5401 3.72234 25.5643 3.29362 25.6169 2.86468C25.674 2.43596 25.7486 2.00703 25.9 1.57809C26.0515 2.00703 26.1261 2.43596 26.1831 2.86468C26.2358 3.29362 26.2599 3.72234 26.2621 4.15128C26.2621 4.58 26.2358 5.00893 26.1853 5.43787ZM22.4303 5.43787C22.3733 5.86659 22.2987 6.29553 22.1472 6.72425C21.9958 6.29553 21.919 5.86659 21.8619 5.43787C21.8093 5.00893 21.7851 4.58 21.7851 4.15128C21.7851 3.72234 21.8115 3.29362 21.8641 2.86468C21.919 2.43596 21.9958 2.00703 22.1472 1.57809C22.2965 2.00703 22.3733 2.43596 22.4303 2.86468C22.483 3.29362 22.5072 3.72234 22.5072 4.15128C22.5093 4.58 22.483 5.00893 22.4303 5.43787ZM18.6775 8.01084C18.6205 8.43978 18.5437 8.8685 18.3944 9.29744C18.2408 8.8685 18.1662 8.43978 18.1091 8.01084C18.0564 7.58212 18.0301 7.15318 18.0323 6.72425C18.0323 6.29553 18.0564 5.86659 18.1091 5.43787C18.1662 5.00893 18.243 4.58 18.3944 4.15128C18.5437 4.58 18.6205 5.00893 18.6775 5.43787C18.728 5.86659 18.7543 6.29553 18.7543 6.72425C18.7543 7.15318 18.7302 7.58212 18.6775 8.01084Z" fill="#95E82C"/>
<path d="M37.5912 9.1006C37.673 9.00618 37.7549 8.91468 37.8409 8.82444H37.3437C37.4276 8.91468 37.5115 9.00618 37.5912 9.1006Z" fill="#95E82C"/>
<path d="M57.0139 11.7065V8.82672H69V61.4481L34.5 78L0 61.4481V8.82672H11.9861V11.7065H2.89121V59.6395L34.5 74.8036L66.1088 59.6395V11.7065H57.0139Z" fill="#95E82C"/>
<path d="M16.4083 29.1679H13.4664V38.3129H9.75364V29.1679H6.81174V25.8098H16.4083V29.1679Z" fill="#95E82C"/>
<path fill-rule="evenodd" clip-rule="evenodd" d="M23.4044 34.294H22.0412V38.3131H18.3282V25.8098H23.4761C26.9393 25.8098 28.6259 27.5425 28.6259 30.293C28.6259 31.8832 27.9792 32.9721 26.8309 33.5976L29.5041 38.3131H25.4492L23.4044 34.294ZM22.0412 31.4008H23.4761C24.3194 31.4008 24.8761 31.1151 24.8761 30.293C24.8761 29.5432 24.4442 29.168 23.4761 29.168H22.0412V31.4008Z" fill="#95E82C"/>
<path fill-rule="evenodd" clip-rule="evenodd" d="M34.7422 36.3129H38.5816L39.1377 38.3129H43.156L38.9587 25.8099H34.3651L30.1678 38.3129H34.1861L34.7422 36.3129ZM36.6619 29.4002L37.8465 33.6692H35.4773L36.6619 29.4002Z" fill="#95E82C"/>
<path d="M48.4294 25.8101V38.3132H44.7156V25.8101H48.4294Z" fill="#95E82C"/>
<path d="M62.1883 38.3131V25.8101H58.4936V32.4727L54.2056 25.8101H50.8862V38.3131H54.6011V31.6512L58.8689 38.3131H62.1883Z" fill="#95E82C"/>
<path d="M19.2518 43.7777V56.2807H15.5378V51.6363H11.6274V56.2807H7.91344V43.7777H11.6274V48.3325H15.5378V43.7777H19.2518Z" fill="#95E82C"/>
<path fill-rule="evenodd" clip-rule="evenodd" d="M25.8716 54.2801H29.7104L30.2668 56.2809H34.2843L30.0862 43.7777H25.4937L21.2957 56.2809H25.3151L25.8716 54.2801ZM27.79 47.368L28.9734 51.6366H26.6065L27.79 47.368Z" fill="#95E82C"/>
<path fill-rule="evenodd" clip-rule="evenodd" d="M41.4066 52.2619H40.0432V56.2807H36.3305V43.7777H41.4778C44.9402 43.7777 46.6273 45.5103 46.6273 48.2609C46.6273 49.8504 45.9801 50.9401 44.8324 51.5655L47.5053 56.2807H43.4517L41.4066 52.2619ZM40.0432 49.368H41.4778C42.3213 49.368 42.8779 49.0823 42.8779 48.2609C42.8779 47.5104 42.4464 47.1358 41.4778 47.1358H40.0432V49.368Z" fill="#95E82C"/>
<path fill-rule="evenodd" clip-rule="evenodd" d="M54.3238 56.2807C58.5025 56.2807 61.0859 53.9046 61.0859 50.0288C61.0859 46.1531 58.5025 43.7776 54.3238 43.7776H49.5513V56.2807H54.3238ZM54.3238 47.1356C56.2955 47.1356 57.3733 48.2428 57.3733 50.0288C57.3733 51.833 56.2955 52.9228 54.3238 52.9228H53.246V47.1356H54.3238Z" fill="#95E82C"/>
<path d="M34.501 62.1336L35.5629 64.28L37.9427 64.6241L36.2219 66.2951L36.6269 68.6538L34.501 67.5405L32.373 68.6538L32.778 66.2951L31.0571 64.6241L33.437 64.28L34.501 62.1336Z" fill="#95E82C"/>
<path d="M44.2955 63.1693L43.4638 61.4928L42.6343 63.1693L40.7754 63.4382L42.1207 64.7439L41.8026 66.5866L43.4638 65.7166L45.1272 66.5866L44.8091 64.7439L46.1544 63.4382L44.2955 63.1693Z" fill="#95E82C"/>
<path d="M25.535 61.4928L24.7031 63.1693L22.8456 63.4381L24.1892 64.7437L23.8732 66.5865L25.535 65.7164L27.1968 66.5865L26.8787 64.7437L28.2244 63.4381L26.3649 63.1693L25.535 61.4928Z" fill="#95E82C"/>
<path d="M36.2943 8.82464C36.2108 8.91468 36.1273 9.00617 36.0458 9.10079C35.9664 9.00617 35.8829 8.91468 35.7973 8.82464H36.2943Z" fill="#95E82C"/>
<path d="M39.1378 9.10071C39.2178 9.00607 39.3021 8.91458 39.3864 8.82456H38.8891C38.9755 8.91458 39.0577 9.00607 39.1378 9.10071Z" fill="#95E82C"/>
<path d="M34.7488 8.82454C34.6636 8.91459 34.5804 9.00608 34.4993 9.10068C34.4203 9.00608 34.3372 8.91459 34.2519 8.82454H34.7488Z" fill="#95E82C"/>
<path d="M30.1102 8.82478C30.0261 8.91482 29.9421 9.00629 29.8621 9.10103C29.7821 9.00629 29.698 8.91482 29.6119 8.82478H30.1102Z" fill="#95E82C"/>
<path d="M32.9539 9.10079C33.0346 9.0062 33.1174 8.91472 33.2023 8.82467H32.7056C32.7904 8.91472 32.8732 9.0062 32.9539 9.10079Z" fill="#95E82C"/>
<path d="M31.6568 8.82466C31.5723 8.9147 31.4878 9.00618 31.4075 9.10074C31.3272 9.00618 31.2448 8.9147 31.1603 8.82466H31.6568Z" fill="#95E82C"/>
</svg>
